<svg width="18" height="19" viewBox="0 0 18 19" fill="none" xmlns="http://www.w3.org/2000/svg">
<path d="M14.0026 2H12.5776C10.9426 2 10.0801 2.8625 10.0801 4.4975V5.9225C10.0801 7.5575 10.9426 8.42 12.5776 8.42H14.0026C15.6376 8.42 16.5001 7.5575 16.5001 5.9225V4.4975C16.5001 2.8625 15.6376 2 14.0026 2Z" fill="url(#paint0_linear_4387_143339)"/>
<path d="M5.43 10.5725H4.005C2.3625 10.5725 1.5 11.435 1.5 13.07V14.495C1.5 16.1375 2.3625 17 3.9975 17H5.4225C7.0575 17 7.92 16.1375 7.92 14.5025V13.0775C7.9275 11.435 7.065 10.5725 5.43 10.5725Z" fill="url(#paint1_linear_4387_143339)"/>
<path d="M4.7175 8.435C6.49448 8.435 7.935 6.99448 7.935 5.2175C7.935 3.44052 6.49448 2 4.7175 2C2.94052 2 1.5 3.44052 1.5 5.2175C1.5 6.99448 2.94052 8.435 4.7175 8.435Z" fill="url(#paint2_linear_4387_143339)"/>
<path d="M13.282 16.9999C15.0589 16.9999 16.4995 15.5594 16.4995 13.7824C16.4995 12.0055 15.0589 10.5649 13.282 10.5649C11.505 10.5649 10.0645 12.0055 10.0645 13.7824C10.0645 15.5594 11.505 16.9999 13.282 16.9999Z" fill="url(#paint3_linear_4387_143339)"/>
<defs>
<linearGradient id="paint0_linear_4387_143339" x1="13.7131" y1="2" x2="15.2634" y2="0.892063" gradientUnits="userSpaceOnUse">
<stop stop-color="#3365E3"/>
<stop offset="1" stop-color="#001C62"/>
</linearGradient>
<linearGradient id="paint1_linear_4387_143339" x1="5.13305" y1="10.5725" x2="6.68462" y2="9.46498" gradientUnits="userSpaceOnUse">
<stop stop-color="#3365E3"/>
<stop offset="1" stop-color="#001C62"/>
</linearGradient>
<linearGradient id="paint2_linear_4387_143339" x1="5.14151" y1="2" x2="6.69547" y2="0.889475" gradientUnits="userSpaceOnUse">
<stop stop-color="#3365E3"/>
<stop offset="1" stop-color="#001C62"/>
</linearGradient>
<linearGradient id="paint3_linear_4387_143339" x1="13.706" y1="10.5649" x2="15.2599" y2="9.45442" gradientUnits="userSpaceOnUse">
<stop stop-color="#3365E3"/>
<stop offset="1" stop-color="#001C62"/>
</linearGradient>
</defs>
</svg>
